<svg width="22" height="21" viewBox="0 0 22 21" fill="none" xmlns="http://www.w3.org/2000/svg">
<g clip-path="url(#clip0_3483_408)">
<path d="M20.6063 13.9934H20.2617V11.3743C20.2617 11.0067 20.1353 10.6965 19.8826 10.4438C19.6299 10.1911 19.3197 10.0647 18.9521 10.0647V4.61966C18.9521 4.25206 18.8258 3.94189 18.573 3.68917C18.3203 3.43645 18.0101 3.31008 17.6425 3.31008H4.13327C3.76567 3.31008 3.45551 3.43645 3.20278 3.68917C2.95006 3.94189 2.8237 4.25206 2.8237 4.61966V10.0647C2.4561 10.0647 2.14593 10.1911 1.89321 10.4438C1.64048 10.6965 1.51412 11.0067 1.51412 11.3743V13.9934H1.1695C1.0776 13.9934 1.00867 14.0164 0.962724 14.0624C0.916774 14.1083 0.893799 14.1772 0.893799 14.2691V15.5787C0.893799 15.6706 0.916774 15.751 0.962724 15.8199C1.00867 15.8889 1.0776 15.9233 1.1695 15.9233H1.51412V17.164C1.51412 17.2559 1.54859 17.3363 1.61751 17.4052C1.68643 17.4741 1.76685 17.5086 1.85875 17.5086H2.8237C3.00749 17.5086 3.09939 17.4167 3.09939 17.2329L3.37509 15.9233H18.4007L18.6764 17.2329C18.6764 17.4167 18.7683 17.5086 18.9521 17.5086H19.9171C20.009 17.5086 20.0894 17.4741 20.1583 17.4052C20.2272 17.3363 20.2617 17.2559 20.2617 17.164V15.9233H20.6063C20.6982 15.9233 20.7671 15.8889 20.8131 15.8199C20.859 15.751 20.882 15.6706 20.882 15.5787V14.2691C20.882 14.1772 20.859 14.1083 20.8131 14.0624C20.7671 14.0164 20.6982 13.9934 20.6063 13.9934ZM3.44402 4.61966C3.44402 4.43586 3.51294 4.27503 3.65079 4.13718C3.78864 3.99933 3.94947 3.93041 4.13327 3.93041H17.6425C17.8263 3.93041 17.9872 3.99933 18.125 4.13718C18.2629 4.27503 18.3318 4.43586 18.3318 4.61966V10.0647H17.6425V8.82407C17.6425 8.45647 17.5162 8.14631 17.2635 7.89359C17.0107 7.64086 16.7235 7.5145 16.4019 7.5145H12.4732C12.1515 7.5145 11.8643 7.64086 11.6116 7.89359C11.3589 8.14631 11.2325 8.45647 11.2325 8.82407V10.0647H10.5433V8.82407C10.5433 8.45647 10.4169 8.14631 10.1642 7.89359C9.91147 7.64086 9.62428 7.5145 9.30263 7.5145H5.37392C5.05227 7.5145 4.76508 7.64086 4.51235 7.89359C4.25963 8.14631 4.13327 8.45647 4.13327 8.82407V10.0647H3.44402V4.61966ZM17.0222 8.82407V10.0647H11.8529V8.82407C11.8529 8.64027 11.9218 8.47945 12.0596 8.3416C12.1975 8.20375 12.3353 8.13482 12.4732 8.13482H16.4019C16.5857 8.13482 16.735 8.20375 16.8499 8.3416C16.9648 8.47945 17.0222 8.64027 17.0222 8.82407ZM9.92296 8.82407V10.0647H4.75359V8.82407C4.75359 8.64027 4.81103 8.47945 4.9259 8.3416C5.04078 8.20375 5.19012 8.13482 5.37392 8.13482H9.30263C9.44048 8.13482 9.57833 8.20375 9.71618 8.3416C9.85403 8.47945 9.92296 8.64027 9.92296 8.82407ZM2.13445 11.3743C2.13445 11.1905 2.20337 11.0412 2.34122 10.9263C2.47907 10.8114 2.6399 10.754 2.8237 10.754H18.9521C19.1359 10.754 19.2967 10.8114 19.4346 10.9263C19.5724 11.0412 19.6414 11.1905 19.6414 11.3743V13.9934H2.13445V11.3743ZM2.548 16.8883H2.13445V15.9233H2.75477L2.548 16.8883ZM19.6414 16.8883H19.2278L19.021 15.9233H19.6414V16.8883ZM20.2617 15.2341H1.51412V14.6138H20.2617V15.2341Z" fill="#696969"/>
</g>
<defs>
<clipPath id="clip0_3483_408">
<rect width="20.6775" height="20.6775" fill="white" transform="matrix(1 0 0 -1 0.892822 20.7482)"/>
</clipPath>
</defs>
</svg>
