<svg width="21" height="15" viewBox="0 0 21 15" fill="none" xmlns="http://www.w3.org/2000/svg">
<path d="M20.6063 10.9934H20.2617V8.37429C20.2617 8.00669 20.1353 7.69653 19.8826 7.44381C19.6299 7.19108 19.3197 7.06472 18.9521 7.06472V1.61966C18.9521 1.25206 18.8258 0.941895 18.573 0.68917C18.3203 0.436445 18.0101 0.310083 17.6425 0.310083H4.13327C3.76567 0.310083 3.45551 0.436445 3.20278 0.68917C2.95006 0.941895 2.8237 1.25206 2.8237 1.61966V7.06472C2.4561 7.06472 2.14593 7.19108 1.89321 7.44381C1.64048 7.69653 1.51412 8.00669 1.51412 8.37429V10.9934H1.1695C1.0776 10.9934 1.00867 11.0164 0.962724 11.0624C0.916774 11.1083 0.893799 11.1772 0.893799 11.2691V12.5787C0.893799 12.6706 0.916774 12.751 0.962724 12.8199C1.00867 12.8889 1.0776 12.9233 1.1695 12.9233H1.51412V14.164C1.51412 14.2559 1.54859 14.3363 1.61751 14.4052C1.68643 14.4741 1.76685 14.5086 1.85875 14.5086H2.8237C3.00749 14.5086 3.09939 14.4167 3.09939 14.2329L3.37509 12.9233H18.4007L18.6764 14.2329C18.6764 14.4167 18.7683 14.5086 18.9521 14.5086H19.9171C20.009 14.5086 20.0894 14.4741 20.1583 14.4052C20.2272 14.3363 20.2617 14.2559 20.2617 14.164V12.9233H20.6063C20.6982 12.9233 20.7671 12.8889 20.8131 12.8199C20.859 12.751 20.882 12.6706 20.882 12.5787V11.2691C20.882 11.1772 20.859 11.1083 20.8131 11.0624C20.7671 11.0164 20.6982 10.9934 20.6063 10.9934ZM3.44402 1.61966C3.44402 1.43586 3.51294 1.27503 3.65079 1.13718C3.78864 0.999332 3.94947 0.930408 4.13327 0.930408H17.6425C17.8263 0.930408 17.9872 0.999332 18.125 1.13718C18.2629 1.27503 18.3318 1.43586 18.3318 1.61966V7.06472H17.6425V5.82407C17.6425 5.45647 17.5162 5.14631 17.2635 4.89359C17.0107 4.64086 16.7235 4.5145 16.4019 4.5145H12.4732C12.1515 4.5145 11.8643 4.64086 11.6116 4.89359C11.3589 5.14631 11.2325 5.45647 11.2325 5.82407V7.06472H10.5433V5.82407C10.5433 5.45647 10.4169 5.14631 10.1642 4.89359C9.91147 4.64086 9.62428 4.5145 9.30263 4.5145H5.37392C5.05227 4.5145 4.76508 4.64086 4.51235 4.89359C4.25963 5.14631 4.13327 5.45647 4.13327 5.82407V7.06472H3.44402V1.61966ZM17.0222 5.82407V7.06472H11.8529V5.82407C11.8529 5.64027 11.9218 5.47945 12.0596 5.3416C12.1975 5.20375 12.3353 5.13482 12.4732 5.13482H16.4019C16.5857 5.13482 16.735 5.20375 16.8499 5.3416C16.9648 5.47945 17.0222 5.64027 17.0222 5.82407ZM9.92296 5.82407V7.06472H4.75359V5.82407C4.75359 5.64027 4.81103 5.47945 4.9259 5.3416C5.04078 5.20375 5.19012 5.13482 5.37392 5.13482H9.30263C9.44048 5.13482 9.57833 5.20375 9.71618 5.3416C9.85403 5.47945 9.92296 5.64027 9.92296 5.82407ZM2.13445 8.37429C2.13445 8.19049 2.20337 8.04116 2.34122 7.92628C2.47907 7.81141 2.6399 7.75397 2.8237 7.75397H18.9521C19.1359 7.75397 19.2967 7.81141 19.4346 7.92628C19.5724 8.04116 19.6414 8.19049 19.6414 8.37429V10.9934H2.13445V8.37429ZM2.548 13.8883H2.13445V12.9233H2.75477L2.548 13.8883ZM19.6414 13.8883H19.2278L19.021 12.9233H19.6414V13.8883ZM20.2617 12.2341H1.51412V11.6138H20.2617V12.2341Z" fill="#696969"/>
</svg>
