<svg width="21" height="21" viewBox="0 0 21 21" fill="none" xmlns="http://www.w3.org/2000/svg">
<path d="M19.6419 11.0987H19.2973V3.86162C19.2973 2.98857 18.9986 2.25337 18.4012 1.65602C17.8039 1.05867 17.0917 0.759996 16.2646 0.759996C15.4375 0.759996 14.7827 1.01272 14.3002 1.51817C13.8177 2.02362 13.5305 2.68989 13.4386 3.51699C13.0251 3.60889 12.692 3.81567 12.4392 4.13732C12.1865 4.45897 12.0601 4.82656 12.0601 5.24011C12.0601 5.46986 12.175 5.58474 12.4048 5.58474H15.1618C15.3915 5.58474 15.5064 5.46986 15.5064 5.24011C15.5064 4.82656 15.38 4.45897 15.1273 4.13732C14.8746 3.81567 14.5414 3.63187 14.1279 3.58592C14.1738 2.98857 14.3806 2.48312 14.7482 2.06957C15.1158 1.65602 15.6213 1.44925 16.2646 1.44925C16.9079 1.44925 17.4593 1.679 17.9188 2.13849C18.3783 2.59799 18.608 3.17237 18.608 3.86162V11.0987H8.26928C8.17738 10.6852 7.9706 10.352 7.64895 10.0993C7.3273 9.84659 6.9597 9.72023 6.54615 9.72023C6.17856 9.26073 5.71906 9.03098 5.16766 9.03098C4.84601 9.03098 4.54733 9.11139 4.27163 9.27222C3.99593 9.43304 3.78916 9.65131 3.65131 9.927C3.32966 9.78916 3.03099 9.72023 2.75529 9.72023C2.34174 9.72023 1.97414 9.84659 1.65249 10.0993C1.33084 10.352 1.12406 10.6852 1.03216 11.0987C0.756465 11.0987 0.515228 11.2021 0.308453 11.4089C0.101678 11.6157 -0.00170898 11.8569 -0.00170898 12.1326C-0.00170898 12.4083 0.101678 12.6495 0.308453 12.8563C0.515228 13.0631 0.756465 13.1665 1.03216 13.1665H1.44571L2.41066 16.8195C2.54851 17.3709 2.8357 17.8189 3.27222 18.1635C3.70875 18.5082 4.20271 18.6805 4.75411 18.6805H5.02981L4.54733 19.5765C4.50138 19.6684 4.4899 19.7603 4.51287 19.8522C4.53585 19.9441 4.5818 20.0015 4.65072 20.0245C4.71965 20.0475 4.80006 20.059 4.89196 20.059C4.98386 20.059 5.07576 19.99 5.16766 19.8522L5.71906 18.6805H15.2996L15.9199 19.8522C15.9659 19.99 16.0463 20.059 16.1612 20.059C16.2761 20.059 16.3565 20.036 16.4024 19.99C16.4484 19.9441 16.4828 19.8752 16.5058 19.7833C16.5288 19.6914 16.5173 19.5995 16.4713 19.5076L16.0578 18.6805C16.5632 18.6805 17.0342 18.5082 17.4707 18.1635C17.9073 17.8189 18.1945 17.3939 18.3323 16.8884L19.2283 13.1665H19.6419C19.9176 13.1665 20.1588 13.0631 20.3656 12.8563C20.5724 12.6495 20.6758 12.4083 20.6758 12.1326C20.6758 11.8569 20.5724 11.6157 20.3656 11.4089C20.1588 11.2021 19.9176 11.0987 19.6419 11.0987ZM14.8171 4.89549H12.8183C12.8643 4.71169 12.9906 4.55087 13.1974 4.41302C13.4042 4.27517 13.611 4.20624 13.8177 4.20624C14.0245 4.20624 14.2198 4.26368 14.4036 4.37855C14.5874 4.49343 14.7252 4.66574 14.8171 4.89549ZM2.75529 10.4095C3.07694 10.4095 3.35264 10.5473 3.58238 10.823C3.67428 10.9149 3.78916 10.9379 3.92701 10.892C4.06486 10.846 4.13378 10.7541 4.13378 10.6163C4.22568 10.3406 4.36353 10.1223 4.54733 9.96147C4.73113 9.80064 4.93791 9.72023 5.16766 9.72023C5.62716 9.72023 5.94881 9.88105 6.13261 10.2027C6.13261 10.2946 6.16707 10.352 6.23599 10.375C6.30492 10.398 6.38533 10.4095 6.47723 10.4095H6.61508C6.79888 10.4095 6.98268 10.4669 7.16648 10.5818C7.35028 10.6967 7.46515 10.869 7.5111 11.0987H1.79034C1.88224 10.869 2.0086 10.6967 2.16942 10.5818C2.33025 10.4669 2.52554 10.4095 2.75529 10.4095ZM17.712 16.6816C17.5741 17.0492 17.3559 17.3594 17.0572 17.6121C16.7585 17.8649 16.4024 17.9912 15.9889 17.9912H4.75411C4.34056 17.9912 3.98445 17.8649 3.68577 17.6121C3.3871 17.3594 3.19181 17.0492 3.09991 16.6816L2.20389 13.1665H18.5391L17.712 16.6816ZM19.6419 12.4772H18.9526H1.03216C0.802415 12.4772 0.68754 12.3623 0.68754 12.1326C0.68754 11.9029 0.802415 11.788 1.03216 11.788H19.6419C19.8716 11.788 19.9865 11.9029 19.9865 12.1326C19.9865 12.3623 19.8716 12.4772 19.6419 12.4772ZM12.4048 7.10108C12.6345 7.10108 12.7494 7.00918 12.7494 6.82539V6.61861C12.7494 6.38886 12.6345 6.27399 12.4048 6.27399C12.175 6.27399 12.0601 6.38886 12.0601 6.61861V6.75646C12.0601 6.98621 12.175 7.10108 12.4048 7.10108ZM12.4048 8.75528C12.4967 8.75528 12.5771 8.70933 12.646 8.61743C12.7149 8.52553 12.7494 8.45661 12.7494 8.41066V7.99711C12.7494 7.76736 12.6345 7.65248 12.4048 7.65248C12.175 7.65248 12.0601 7.76736 12.0601 7.99711V8.41066C12.0601 8.64041 12.175 8.75528 12.4048 8.75528ZM12.4048 10.0649C12.6345 10.0649 12.7494 9.94998 12.7494 9.72023V9.58238C12.7494 9.35263 12.6345 9.23776 12.4048 9.23776C12.175 9.23776 12.0601 9.35263 12.0601 9.58238V9.72023C12.0601 9.94998 12.175 10.0649 12.4048 10.0649ZM13.7833 7.10108C14.013 7.10108 14.1279 7.00918 14.1279 6.82539V6.61861C14.1279 6.38886 14.013 6.27399 13.7833 6.27399C13.5535 6.27399 13.4386 6.38886 13.4386 6.61861V6.75646C13.4386 6.98621 13.5535 7.10108 13.7833 7.10108ZM13.4386 8.34173C13.4386 8.57148 13.5535 8.68636 13.7833 8.68636C13.8752 8.68636 13.9556 8.65189 14.0245 8.58297C14.0934 8.51404 14.1279 8.43363 14.1279 8.34173V7.99711C14.1279 7.76736 14.013 7.65248 13.7833 7.65248C13.5535 7.65248 13.4386 7.76736 13.4386 7.99711V8.34173ZM13.4386 9.72023C13.4386 9.94998 13.5535 10.0649 13.7833 10.0649C14.013 10.0649 14.1279 9.94998 14.1279 9.72023V9.51346C14.1279 9.28371 14.013 9.16883 13.7833 9.16883C13.5535 9.16883 13.4386 9.28371 13.4386 9.51346V9.72023ZM15.1618 7.10108C15.3915 7.10108 15.5064 7.00918 15.5064 6.82539V6.61861C15.5064 6.38886 15.3915 6.27399 15.1618 6.27399C14.932 6.27399 14.8171 6.38886 14.8171 6.61861V6.75646C14.8171 6.98621 14.932 7.10108 15.1618 7.10108ZM14.8171 8.34173C14.8171 8.57148 14.932 8.68636 15.1618 8.68636C15.2537 8.68636 15.3341 8.65189 15.403 8.58297C15.4719 8.51404 15.5064 8.43363 15.5064 8.34173V7.99711C15.5064 7.76736 15.3915 7.65248 15.1618 7.65248C14.932 7.65248 14.8171 7.76736 14.8171 7.99711V8.34173ZM14.8171 9.72023C14.8171 9.94998 14.932 10.0649 15.1618 10.0649C15.3915 10.0649 15.5064 9.94998 15.5064 9.72023V9.51346C15.5064 9.28371 15.3915 9.16883 15.1618 9.16883C14.932 9.16883 14.8171 9.28371 14.8171 9.51346V9.72023Z" fill="#696969"/>
</svg>
